<mxfile host="app.diagrams.net" modified="2024-06-21T02:27:02.559Z" agent="Mozilla/5.0 (Windows NT 10.0; Win64; x64) AppleWebKit/537.36 (KHTML, like Gecko) Chrome/125.0.0.0 Safari/537.36" version="24.5.4" etag="2qAsb5am0-14dbjADmkU" type="github">
  <diagram name="Page-1" id="VHgLGl1ZA9J5DV7I7v9V">
    <mxGraphModel>
      <root>
        <mxCell id="0" />
        <mxCell id="1" parent="0" />
      </root>
    </mxGraphModel>
  </diagram>
</mxfile>
